<svg xmlns="http://www.w3.org/2000/svg" viewBox="0 0 128 128" width="128" height="128">
<defs>
  <radialGradient id="hs" cx=".5" cy=".38" r=".55"><stop offset="0" stop-color="#FFD8A8"/><stop offset="1" stop-color="#E8B878"/></radialGradient>
  <linearGradient id="hc" x1="0" y1="0" x2="0" y2="1"><stop offset="0" stop-color="#8FBC3C"/><stop offset="1" stop-color="#5B8C14"/></linearGradient>
  <linearGradient id="hh" x1="0" y1="0" x2="0" y2="1"><stop offset="0" stop-color="#5D4037"/><stop offset="1" stop-color="#3E2723"/></linearGradient>
  <radialGradient id="he" cx=".45" cy=".4" r=".5"><stop offset="0" stop-color="#66BB6A"/><stop offset=".6" stop-color="#2E7D32"/><stop offset="1" stop-color="#1B5E20"/></radialGradient>
</defs>
<!-- Bow held in left hand -->
<path d="M26,50 Q18,75 26,100" stroke="#8B6914" stroke-width="4" stroke-linecap="round" fill="none"/>
<path d="M26,50 Q18,75 26,100" stroke="#A08030" stroke-width="2" stroke-linecap="round" fill="none"/>
<line x1="26" y1="50" x2="26" y2="100" stroke="#D4C5A0" stroke-width="1.2"/>
<path d="M36,70 Q34,92 34,128 L94,128 Q94,92 92,70 Q78,78 64,80 Q50,78 36,70Z" fill="url(#hc)"/>
<path d="M50,80 Q52,95 50,110" stroke="rgba(0,0,0,0.08)" stroke-width="0.8" fill="none"/>
<path d="M78,80 Q76,95 78,110" stroke="rgba(0,0,0,0.08)" stroke-width="0.8" fill="none"/>
<!-- Left arm sleeve -->
<path d="M36,72 Q32,78 28,84 L34,86 Q36,80 40,74Z" fill="url(#hc)"/>
<!-- Left forearm + hand gripping bow at center -->
<path d="M28,82 Q26,78 24,74 Q22,72 22,74 Q22,78 24,82 Q26,86 28,82Z" fill="url(#hs)"/>
<path d="M24,76 Q23,74 24,72" stroke="#D4A06A" stroke-width="0.5" fill="none"/>
<path d="M52,72 Q64,82 76,72 Q70,76 64,78 Q58,76 52,72Z" fill="#6B8E23"/>
<path d="M34,96 L94,96 L94,102 L34,102Z" fill="#5D4037"/>
<ellipse cx="64" cy="99" rx="5" ry="4" fill="#F5F0E0" stroke="#D4C5A0" stroke-width="0.8"/>
<circle cx="64" cy="99" r="2" fill="#D4C5A0"/>
<path d="M54,56 Q54,66 56,72 L72,72 Q74,66 74,56Z" fill="url(#hs)"/>
<path d="M44,52 Q40,36 44,20 Q50,10 64,8 Q78,10 84,20 Q88,36 84,52 Q80,58 64,60 Q48,58 44,52Z" fill="url(#hs)"/>
<path d="M46,48 Q64,56 82,48 Q80,54 64,58 Q48,54 46,48Z" fill="rgba(0,0,0,0.03)"/>
<ellipse cx="46" cy="42" rx="5" ry="3" fill="rgba(255,150,150,0.15)"/>
<ellipse cx="82" cy="42" rx="5" ry="3" fill="rgba(255,150,150,0.15)"/>
<path d="M42,30 Q38,18 44,10 Q52,2 64,2 Q76,2 84,10 Q90,18 86,30 Q82,16 64,12 Q46,16 42,30Z" fill="url(#hh)"/>
<path d="M40,28 Q38,16 44,10 L40,48 Q36,38 40,28Z" fill="url(#hh)"/>
<path d="M88,28 Q90,16 84,10 L88,48 Q92,38 88,28Z" fill="url(#hh)"/>
<path d="M88,42 Q92,56 90,74 Q88,82 86,88" stroke="#4A3728" stroke-width="6" stroke-linecap="round" fill="none"/>
<path d="M88,42 Q92,56 90,74 Q88,82 86,88" stroke="#5D4037" stroke-width="3" fill="none"/>
<path d="M89,50 L91,52 M89,58 L91,60 M89,66 L90,68 M88,74 L89,76" stroke="#3E2723" stroke-width="1"/>
<circle cx="86" cy="90" r="3" fill="#4A3728"/>
<path d="M40,42 Q36,56 38,74 Q40,82 42,88" stroke="#4A3728" stroke-width="6" stroke-linecap="round" fill="none"/>
<path d="M40,42 Q36,56 38,74 Q40,82 42,88" stroke="#5D4037" stroke-width="3" fill="none"/>
<path d="M39,50 L37,52 M39,58 L37,60 M39,66 L38,68 M40,74 L39,76" stroke="#3E2723" stroke-width="1"/>
<circle cx="42" cy="90" r="3" fill="#4A3728"/>
<path d="M56,5 Q60,3 66,5" stroke="rgba(255,255,255,0.25)" stroke-width="0.8" fill="none"/>
<path d="M38,18 L32,4 Q38,10 40,16Z" fill="#E8E0D0"/>
<path d="M32,5 L37,14" stroke="rgba(0,0,0,0.1)" stroke-width="0.5"/>
<path d="M36,16 L28,6 Q34,10 38,14Z" fill="#D4C5A0" opacity="0.8"/>
<path d="M46,26 Q50,22 58,24" stroke="#4A3728" stroke-width="1.8" stroke-linecap="round" fill="none"/>
<path d="M70,24 Q78,22 82,26" stroke="#4A3728" stroke-width="1.8" stroke-linecap="round" fill="none"/>
<path d="M44,28 L46,25 M46,27 L47,24" stroke="#3E2723" stroke-width="0.8" fill="none"/>
<path d="M82,27 L84,25 M80,28 L82,25" stroke="#3E2723" stroke-width="0.8" fill="none"/>
<ellipse cx="52" cy="32" rx="5.5" ry="5" fill="#FFFDF8"/>
<circle cx="53" cy="32" r="3.8" fill="url(#he)"/>
<circle cx="53" cy="32" r="2" fill="#1A3A1A"/>
<circle cx="54.5" cy="31" r="1.3" fill="rgba(255,255,255,0.85)"/>
<ellipse cx="76" cy="32" rx="5.5" ry="5" fill="#FFFDF8"/>
<circle cx="75" cy="32" r="3.8" fill="url(#he)"/>
<circle cx="75" cy="32" r="2" fill="#1A3A1A"/>
<circle cx="76.5" cy="31" r="1.3" fill="rgba(255,255,255,0.85)"/>
<path d="M63,34 Q64,40 61,42" stroke="#D4A06A" stroke-width="1" fill="none"/>
<path d="M65,34 Q64,40 67,42" stroke="#D4A06A" stroke-width="1" fill="none"/>
<path d="M56,46 Q60,50 64,50 Q68,50 72,46" stroke="#C0755A" stroke-width="1.5" stroke-linecap="round" fill="none"/>
<path d="M58,46 Q64,49 70,46 Q64,50.5 58,46Z" fill="rgba(200,100,80,0.2)"/>
</svg>