<svg xmlns="http://www.w3.org/2000/svg" viewBox="0 0 128 128" width="128" height="128">
<defs>
  <radialGradient id="ss" cx=".5" cy=".38" r=".55"><stop offset="0" stop-color="#D4A878"/><stop offset="1" stop-color="#A8825A"/></radialGradient>
  <linearGradient id="sr" x1="0" y1="0" x2="0" y2="1"><stop offset="0" stop-color="#2C3E60"/><stop offset="1" stop-color="#1A2744"/></linearGradient>
  <radialGradient id="sc" cx=".5" cy=".4" r=".5"><stop offset="0" stop-color="#FF6B6B"/><stop offset=".5" stop-color="#E74C3C"/><stop offset="1" stop-color="#922B21"/></radialGradient>
  <radialGradient id="sg" cx=".5" cy=".5" r=".5"><stop offset="0" stop-color="#CE93D8"/><stop offset=".6" stop-color="#9B59B6"/><stop offset="1" stop-color="#6A1B9A"/></radialGradient>
  <radialGradient id="se" cx=".4" cy=".4" r=".55"><stop offset="0" stop-color="#5C6BC0"/><stop offset=".5" stop-color="#1A237E"/><stop offset="1" stop-color="#0D1442"/></radialGradient>
  <radialGradient id="gw" cx=".5" cy=".5" r=".5"><stop offset="0" stop-color="rgba(231,76,60,0.6)"/><stop offset="1" stop-color="rgba(231,76,60,0)"/></radialGradient>
</defs>
<ellipse cx="64" cy="64" rx="56" ry="60" fill="rgba(80,80,200,0.05)"/>
<path d="M102,38 L104,124" stroke="#D4C5A0" stroke-width="5" stroke-linecap="round"/>
<path d="M102,38 L104,124" stroke="#F0E8D8" stroke-width="3" stroke-linecap="round"/>
<path d="M96,36 Q102,26 108,36 Q108,44 102,48 Q96,44 96,36Z" stroke="#E8DCC8" stroke-width="2" fill="none"/>
<circle cx="102" cy="38" r="10" fill="url(#gw)"/>
<ellipse cx="102" cy="38" rx="6" ry="6.5" fill="url(#sc)"/>
<ellipse cx="100" cy="36" rx="2" ry="2.5" fill="rgba(255,200,200,0.6)"/>
<path d="M28,68 Q26,92 26,128 L102,128 Q102,92 100,68 Q82,78 64,80 Q46,78 28,68Z" fill="url(#sr)"/>
<circle cx="48" cy="90" r="4" fill="none" stroke="#9B59B6" stroke-width="1.2"/>
<path d="M46,90 L50,90 M48,88 L48,92" stroke="#9B59B6" stroke-width="0.8"/>
<circle cx="80" cy="90" r="4" fill="none" stroke="#9B59B6" stroke-width="1.2"/>
<path d="M78,88 L82,92 M82,88 L78,92" stroke="#9B59B6" stroke-width="0.8"/>
<path d="M60,96 L64,92 L68,96 L64,100Z" stroke="#9B59B6" stroke-width="1" fill="none"/>
<path d="M46,82 Q48,100 44,120" stroke="rgba(0,0,0,0.08)" stroke-width="0.8" fill="none"/>
<path d="M82,82 Q80,100 84,120" stroke="rgba(0,0,0,0.08)" stroke-width="0.8" fill="none"/>
<path d="M28,68 Q46,80 64,82 Q82,80 100,68 Q94,74 64,86 Q34,74 28,68Z" fill="#5D4037"/>
<path d="M30,69 Q46,78 64,80 Q82,78 98,69" stroke="#7B6545" stroke-width="0.7" fill="none"/>
<path d="M52,56 Q52,66 54,72 L74,72 Q76,66 76,56Z" fill="url(#ss)"/>
<ellipse cx="44" cy="70" rx="4" ry="2.8" fill="#F5F0E0" stroke="#D4C5A0" stroke-width="0.7" transform="rotate(-20,44,70)"/>
<ellipse cx="53" cy="74" rx="3.5" ry="2.5" fill="#F5F0E0" stroke="#D4C5A0" stroke-width="0.7"/>
<ellipse cx="75" cy="74" rx="3.5" ry="2.5" fill="#F5F0E0" stroke="#D4C5A0" stroke-width="0.7"/>
<ellipse cx="84" cy="70" rx="4" ry="2.8" fill="#F5F0E0" stroke="#D4C5A0" stroke-width="0.7" transform="rotate(20,84,70)"/>
<path d="M59,74 L64,70 L69,74 L66,80 L62,80Z" fill="url(#sg)" stroke="#7B1FA2" stroke-width="0.8"/>
<path d="M62,74 L64,72 L66,74" stroke="rgba(255,255,255,0.3)" stroke-width="0.5" fill="none"/>
<circle cx="64" cy="75" r="1" fill="rgba(255,200,255,0.5)"/>
<path d="M44,52 Q40,36 44,20 Q50,10 64,8 Q78,10 84,20 Q88,36 84,52 Q80,58 64,60 Q48,58 44,52Z" fill="url(#ss)"/>
<path d="M46,48 Q64,56 82,48 Q80,54 64,58 Q48,54 46,48Z" fill="rgba(0,0,0,0.04)"/>
<path d="M44,34 Q46,40 48,46" stroke="rgba(0,0,0,0.08)" stroke-width="2" fill="none"/>
<path d="M84,34 Q82,40 80,46" stroke="rgba(0,0,0,0.08)" stroke-width="2" fill="none"/>
<path d="M42,28 Q38,16 46,10 Q54,4 64,4 Q74,4 82,10 Q90,16 86,28 Q82,16 64,14 Q46,16 42,28Z" fill="#9E9E9E"/>
<path d="M40,26 Q38,16 46,10 L42,34Z" fill="#9E9E9E" opacity="0.6"/>
<path d="M88,26 Q90,16 82,10 L86,34Z" fill="#9E9E9E" opacity="0.6"/>
<path d="M42,26 Q48,22 58,28 L58,34 Q48,32 42,30Z" fill="rgba(52,152,219,0.35)"/>
<path d="M86,26 Q80,22 70,28 L70,34 Q80,32 86,30Z" fill="rgba(52,152,219,0.35)"/>
<path d="M44,34 L42,40" stroke="rgba(52,152,219,0.4)" stroke-width="1.5" fill="none"/>
<path d="M84,34 L86,40" stroke="rgba(52,152,219,0.4)" stroke-width="1.5" fill="none"/>
<path d="M46,26 Q50,24 56,26" stroke="#808080" stroke-width="1.5" stroke-linecap="round" fill="none"/>
<path d="M72,26 Q78,24 82,26" stroke="#808080" stroke-width="1.5" stroke-linecap="round" fill="none"/>
<ellipse cx="52" cy="32" rx="5.5" ry="4.5" fill="#E8F0FF"/>
<circle cx="52" cy="32" r="4" fill="url(#se)"/>
<circle cx="52" cy="32" r="2" fill="#0D1442"/>
<circle cx="52" cy="31" r="1.5" fill="rgba(100,120,255,0.4)"/>
<circle cx="53.5" cy="31" r="1" fill="rgba(255,255,255,0.7)"/>
<ellipse cx="76" cy="32" rx="5.5" ry="4.5" fill="#E8F0FF"/>
<circle cx="76" cy="32" r="4" fill="url(#se)"/>
<circle cx="76" cy="32" r="2" fill="#0D1442"/>
<circle cx="76" cy="31" r="1.5" fill="rgba(100,120,255,0.4)"/>
<circle cx="77.5" cy="31" r="1" fill="rgba(255,255,255,0.7)"/>
<path d="M62,34 Q63,42 60,44" stroke="#987360" stroke-width="1.2" fill="none"/>
<path d="M66,34 Q65,42 68,44" stroke="#987360" stroke-width="1.2" fill="none"/>
<path d="M60,44 Q64,46 68,44" stroke="#987360" stroke-width="1" fill="none"/>
<path d="M56,48 Q64,50 72,48" stroke="#8B6A50" stroke-width="1.5" stroke-linecap="round" fill="none"/>
</svg>