<svg xmlns="http://www.w3.org/2000/svg" viewBox="0 0 200 200" width="200" height="200">
  <!-- 布朗猪猪 - 可爱小野猪 -->
  <!-- 身体 -->
  <ellipse cx="100" cy="130" rx="42" ry="32" fill="#A1887F"/>
  <!-- 肚子 -->
  <ellipse cx="100" cy="135" rx="30" ry="22" fill="#D7CCC8"/>
  <!-- 头 -->
  <circle cx="100" cy="82" r="36" fill="#8D6E63"/>
  <!-- 脸 -->
  <ellipse cx="100" cy="88" rx="30" ry="26" fill="#BCAAA4"/>
  <!-- 大眼睛 -->
  <ellipse cx="85" cy="78" rx="9" ry="11" fill="white"/>
  <ellipse cx="115" cy="78" rx="9" ry="11" fill="white"/>
  <circle cx="88" cy="79" r="5.5" fill="#333"/>
  <circle cx="118" cy="79" r="5.5" fill="#333"/>
  <circle cx="89" cy="76" r="2" fill="white"/>
  <circle cx="119" cy="76" r="2" fill="white"/>
  <!-- 猪鼻子 -->
  <ellipse cx="100" cy="95" rx="14" ry="10" fill="#795548"/>
  <ellipse cx="100" cy="95" rx="11" ry="8" fill="#A1887F"/>
  <circle cx="95" cy="95" r="3" fill="#5D4037"/>
  <circle cx="105" cy="95" r="3" fill="#5D4037"/>
  <!-- 微笑 -->
  <path d="M92 105 Q100 112 108 105" stroke="#5D4037" stroke-width="1.8" fill="none" stroke-linecap="round"/>
  <!-- 腮红 -->
  <ellipse cx="75" cy="92" rx="7" ry="4" fill="#EF9A9A" opacity="0.5"/>
  <ellipse cx="125" cy="92" rx="7" ry="4" fill="#EF9A9A" opacity="0.5"/>
  <!-- 小耳朵 -->
  <path d="M70 65 Q62 45 78 58" fill="#8D6E63"/>
  <path d="M72 63 Q66 50 79 59" fill="#BCAAA4"/>
  <path d="M130 65 Q138 45 122 58" fill="#8D6E63"/>
  <path d="M128 63 Q134 50 121 59" fill="#BCAAA4"/>
  <!-- 小獠牙 -->
  <path d="M83 103 Q80 112 84 110" fill="white" stroke="#E0E0E0" stroke-width="0.5"/>
  <path d="M117 103 Q120 112 116 110" fill="white" stroke="#E0E0E0" stroke-width="0.5"/>
  <!-- 小脚 -->
  <ellipse cx="75" cy="160" rx="10" ry="6" fill="#795548"/>
  <ellipse cx="95" cy="162" rx="10" ry="6" fill="#795548"/>
  <ellipse cx="105" cy="162" rx="10" ry="6" fill="#795548"/>
  <ellipse cx="125" cy="160" rx="10" ry="6" fill="#795548"/>
  <!-- 尾巴卷 -->
  <path d="M142 125 Q155 118 158 128 Q160 136 152 132" stroke="#8D6E63" stroke-width="3" fill="none" stroke-linecap="round"/>
  <text x="100" y="190" text-anchor="middle" font-size="12" fill="#5D4037" font-family="sans-serif">布朗猪猪</text>
</svg>